PathFileType	4	(X/Y/Z)	C:\Users\WrightLab\Desktop\Jo\P4V115.trc
DataRate	CameraRate	NumFrames	NumMarkers	Units	OrigDataRate	OrigDataStartFrame	OrigNumFrames
100.00	100.00	       41	19	mm	100.00	160	       637
Frame#	Time	Headset_Front			Headset_Back			Headset_Left			Headset_Right			Left_Shoulder			Right_Shoulder			Sternum			C7			Left Elbow			Right Elbow			Left Wrist			Right Wrist			Left ASIS			Right ASIS			S2			Left Knee			Right Knee			Left Ankle			Right Ankle			
		X1	Y1	Z1	X2	Y2	Z2	X3	Y3	Z3	X4	Y4	Z4	X5	Y5	Z5	X6	Y6	Z6	X7	Y7	Z7	X8	Y8	Z8	X9	Y9	Z9	X10	Y10	Z10	X11	Y11	Z11	X12	Y12	Z12	X13	Y13	Z13	X14	Y14	Z14	X15	Y15	Z15	X16	Y16	Z16	X17	Y17	Z17	X18	Y18	Z18	X19	Y19	Z19	

160	1.590																									132.27576	1134.30762	-1410.76648				29.86966	872.62042	-1272.31226	-460.83572	856.22333	-1451.83887	4.04539	975.18201	-1412.77087							18.82414	499.33005	-1520.03162	-420.40121	558.48071	-1374.31543							
161	1.600																									128.35094	1134.03284	-1404.97046				25.22122	871.55145	-1264.58423	-465.91074	852.33014	-1455.43005	-0.14437	976.91559	-1402.39685							16.47022	499.91733	-1516.38391	-423.83856	557.37787	-1370.03320							
162	1.610																									124.74422	1132.30640	-1396.03284				19.62267	871.86493	-1256.95715	-470.39368	850.08344	-1452.40564	-3.85482	975.98883	-1395.19739							13.34610	498.46585	-1514.33667	-429.47461	558.33453	-1365.95422							
163	1.620																									120.29713	1132.43982	-1391.11145				13.72913	871.65363	-1249.21313	-475.08347	846.51868	-1457.48889	-7.93427	973.58936	-1394.03625							11.04515	495.49365	-1515.98376	-434.72275	557.66907	-1360.71826							
164	1.630																									116.12779	1130.45911	-1381.67651				7.95496	871.72620	-1241.83997	-480.56561	843.88916	-1451.77173	-13.39653	971.78223	-1387.04089							6.86624	496.42273	-1508.92029	-440.62030	557.52313	-1355.56152							
165	1.640																									111.65812	1130.60620	-1376.94458				2.90532	870.74731	-1233.79736	-485.41592	840.84747	-1454.25269	-17.06293	971.10260	-1379.83533							4.44459	496.21353	-1503.58325	-445.77533	557.50824	-1350.00085							
166	1.650																									107.76449	1128.01709	-1366.13721				-4.14052	870.95074	-1225.92664	-490.62390	839.65320	-1450.33911	-21.65145	969.93665	-1370.66882							0.61776	497.16476	-1493.71533	-451.30817	557.02979	-1343.97766							
167	1.660																									102.60595	1127.29846	-1359.34412				-8.85093	870.32367	-1218.48914	-495.61752	835.81812	-1451.33655	-26.95607	968.15558	-1369.72900							-2.37424	496.38870	-1489.25500	-456.75729	556.72058	-1338.83032							
168	1.670																									97.30022	1126.58521	-1352.45837				-14.05089	870.01752	-1210.90186	-500.52716	834.34967	-1449.23352	-31.69207	965.84778	-1362.42041							-5.42641	492.78943	-1489.39380	-462.20227	556.55762	-1333.49231							
169	1.680																									92.20539	1125.92419	-1345.84851				-20.71388	869.27319	-1203.16992	-506.02493	829.73029	-1447.93384	-36.01535	964.87885	-1353.22717							-10.22518	492.97574	-1483.15820	-468.44147	555.90247	-1327.47070							
170	1.690																									87.41076	1124.70935	-1336.87317				-25.92287	867.94385	-1195.11597	-510.71982	828.35828	-1447.75110	-42.77852	964.04340	-1349.61853							-13.82258	493.23224	-1476.07373	-474.16888	555.45502	-1320.41699							
171	1.700																									81.61066	1123.14758	-1328.30396				-30.94161	866.93115	-1187.30286	-516.03442	826.53076	-1445.72998	-47.90924	962.08319	-1341.92419							-17.62507	493.04944	-1468.55261	-479.73373	554.38562	-1314.43396							
172	1.710																									76.24014	1122.93799	-1321.75952				-37.28035	866.53412	-1179.19763	-522.35980	824.55475	-1441.82214	-53.49190	961.54523	-1333.18994							-20.94385	491.18417	-1464.01099	-485.87909	553.51605	-1308.66443							
173	1.720																									70.87199	1120.95056	-1310.84778				-43.02151	864.65851	-1171.73511	-528.03729	824.71100	-1435.85718	-59.98634	958.65619	-1330.70459							-25.32995	488.72864	-1464.29578	-491.25583	553.51202	-1301.24158							
174	1.730																									64.61232	1120.54956	-1304.36230				-48.93401	862.69226	-1163.73376	-533.89819	820.96625	-1435.28076	-65.32327	958.49139	-1318.80713							-29.83458	487.55988	-1457.99365	-497.99057	552.49127	-1295.03040							
175	1.740																									58.21290	1119.71338	-1296.17676				-54.77548	861.70984	-1155.72717	-538.44342	818.71472	-1432.48450	-72.21963	956.32813	-1317.37622	-396.00360	984.34454	-1388.77979				-34.70832	489.61868	-1446.37720	-503.20343	551.27386	-1288.33533							
176	1.750																									51.97416	1118.46106	-1286.23352				-60.16010	860.56091	-1148.26001	-544.68481	818.14075	-1432.11316	-77.94312	955.42981	-1307.54932	-402.84369	981.95978	-1384.15601				-39.15726	489.35211	-1443.03125	-509.42639	550.61603	-1281.84705							
177	1.760																									45.61635	1118.53845	-1279.96143				-65.90490	859.13501	-1140.13623	-550.40570	816.21216	-1422.38477	-86.16695	954.02484	-1303.60571	-408.68256	982.24805	-1376.30078				-43.05143	485.48520	-1443.20947	-515.17902	548.56146	-1275.30640							
178	1.770																									39.52312	1116.52148	-1268.52783				-72.67709	858.34094	-1132.72607	-556.34375	814.89801	-1425.24731	-93.50411	954.69000	-1289.09937	-416.73932	980.07861	-1373.54895				-48.09912	488.73026	-1432.21460	-520.31976	547.21204	-1268.99426							
179	1.780																									32.46222	1116.98376	-1263.09851				-77.08483	855.44385	-1124.72400	-562.38733	814.67188	-1412.77222	-101.17187	952.02698	-1289.31042	-423.25311	979.76410	-1360.58691				-52.75231	489.98019	-1420.92566	-526.27344	544.61084	-1263.10559							
180	1.790																									24.78357	1115.74805	-1253.91541				-83.64841	854.94751	-1117.07031	-569.05878	813.84827	-1413.64331	-108.77285	953.12091	-1277.45178	-431.19101	979.24689	-1357.78625				-58.56259	491.56790	-1413.14661	-531.33112	543.14984	-1257.32056							
181	1.800																									17.40679	1115.79956	-1246.01843				-90.08159	853.95496	-1109.92310	-573.44470	812.41876	-1407.60645	-118.21645	952.66833	-1266.39026	-437.96530	980.46252	-1346.44153				-63.54346	490.58862	-1409.01648	-537.01642	540.71613	-1251.20874							
182	1.810																									11.35368	1115.95239	-1237.86768				-95.75577	852.10522	-1102.29333	-580.76636	813.33661	-1399.62683	-126.28392	951.98792	-1263.77368	-445.83832	980.44305	-1340.01746				-68.80956	492.03915	-1397.55664	-542.15686	538.11041	-1245.34143							
183	1.820																									4.42798	1115.26367	-1228.77686				-101.91997	852.47699	-1095.30151	-587.42035	813.79785	-1393.40686	-135.06885	953.47528	-1248.80518	-454.55124	981.12720	-1333.23474				-73.91967	494.23764	-1386.63342	-547.41510	536.55176	-1239.98950							
184	1.830																									-2.91177	1115.63550	-1220.78894				-107.98475	850.96094	-1088.37366	-593.59711	814.21722	-1387.75586	-144.66656	953.06262	-1239.43225	-463.38364	981.80853	-1326.98169				-81.23360	493.36777	-1380.04688	-552.83008	535.29956	-1234.30750							
185	1.840																									-10.40335	1116.46838	-1213.68311				-113.01434	849.74304	-1081.00085	-599.45337	814.78540	-1381.18652	-153.46399	952.79706	-1236.87427	-471.29053	982.71301	-1320.21826				-88.04134	494.95746	-1367.02380	-559.11322	534.70544	-1228.75183							
186	1.850																									-17.26875	1116.41296	-1204.50366				-120.24843	849.44708	-1073.75073	-605.71619	815.80994	-1374.69556	-163.46513	953.59637	-1222.09326	-478.33752	983.26373	-1313.97070				-94.17885	495.29428	-1354.53479	-565.74384	535.11847	-1224.37244							
187	1.860																									-24.51408	1118.01587	-1198.80103				-124.95241	849.05591	-1067.85168	-613.15082	816.86664	-1367.27124	-173.16313	956.28986	-1207.78186	-488.13989	985.17444	-1307.48755				-104.01386	493.98181	-1342.46045	-572.92181	535.45099	-1219.70667							
188	1.870																									-31.82212	1119.40747	-1191.02295				-131.88527	849.32739	-1061.11548	-619.15057	817.67889	-1360.32483	-183.91339	956.75781	-1199.30383	-496.80719	986.81683	-1301.88879				-111.77398	494.62369	-1323.97900	-580.40295	536.02844	-1215.52649							
189	1.880																									-39.39905	1119.75757	-1181.05920				-135.69356	850.95154	-1053.58960	-627.43066	819.76471	-1353.01843	-192.24445	955.39124	-1197.40149	-505.99057	989.86987	-1295.91992				-122.36840	494.62207	-1302.77808	-587.24786	535.98621	-1212.66003							
190	1.890																									-46.57365	1121.44495	-1174.76904				-141.89020	850.94763	-1046.66956	-633.46722	821.77533	-1344.70203	-201.89969	955.85083	-1185.41626	-513.50787	991.61700	-1289.48303				-131.92827	493.63858	-1283.59009	-593.84229	535.34735	-1210.18591							
191	1.900																									-54.17624	1123.07495	-1166.67346				-147.13399	851.87402	-1041.06470	-641.78149	825.25745	-1336.22827	-211.16580	959.59631	-1170.36975	-521.70837	992.78119	-1283.71045				-143.88051	491.17322	-1266.51257	-599.02325	534.98761	-1209.11621							
192	1.910																									-61.14251	1124.98303	-1159.99365				-152.60335	852.60681	-1033.16406	-649.11414	827.54486	-1327.83069	-219.81900	957.07697	-1168.26746	-530.69012	995.61218	-1277.80859				-154.38992	487.38205	-1247.82751	-602.81024	533.12408	-1206.87610							
193	1.920																									-68.59776	1127.51782	-1154.40845				-158.13666	853.88733	-1026.45032	-656.20117	830.42145	-1318.87085	-229.36140	958.71356	-1159.18689	-538.63452	997.49780	-1272.18494				-166.98921	486.15714	-1227.41357	-605.36115	531.38171	-1204.55652							
194	1.930																									-75.49848	1129.03796	-1147.19727				-163.79601	855.19415	-1020.31873	-664.61359	834.34064	-1309.27747	-236.42638	960.47217	-1145.70276	-544.69403	998.57025	-1267.11499				-179.00204	483.35718	-1206.26697	-607.13098	531.05878	-1202.33203							
195	1.940																									-82.24879	1131.16931	-1140.61853				-168.61403	856.16913	-1012.42096	-673.09766	837.47961	-1299.01611	-245.42326	961.80249	-1141.50830	-552.02026	999.99017	-1262.23340				-191.40459	482.62848	-1186.34729	-608.94550	531.39807	-1201.05078							
196	1.950																									-88.68978	1132.90942	-1133.84644				-174.27261	857.28955	-1006.32520	-679.59308	840.73688	-1289.61450	-252.07635	962.31091	-1135.09692	-558.33759	1001.62555	-1257.46802				-204.71008	481.24591	-1165.97437	-612.18140	531.62091	-1199.17004							
197	1.960																									-95.06525	1134.44263	-1126.41101				-179.62863	858.69989	-1000.22540	-688.75177	845.01849	-1279.05725	-260.32288	963.02539	-1124.27698	-564.84399	1002.99036	-1252.45874				-216.88206	481.89819	-1145.65649	-614.13055	531.56549	-1196.82422							
198	1.970																									-101.49719	1135.98315	-1119.32898				-185.00914	860.11548	-992.86743	-695.55182	847.76495	-1268.21143	-267.60562	965.31000	-1114.71155	-571.22559	1004.52338	-1247.78369				-230.44214	483.23999	-1125.74438	-615.89185	531.01489	-1194.88904							
199	1.980																									-107.16529	1137.86853	-1113.23633				-191.01692	861.61682	-986.74133	-703.34570	852.34564	-1257.44275	-273.48004	967.74640	-1105.09717	-576.52527	1005.16278	-1242.80078				-243.56596	483.55286	-1106.15979	-618.53571	530.78180	-1192.73877							
200	1.990																									-112.99140	1139.31238	-1105.75000				-195.74112	863.34265	-981.18292	-712.05481	856.71228	-1246.06689	-282.23007	969.84680	-1100.02783	-582.23907	1007.02936	-1237.95544				-258.33789	485.74777	-1088.52771	-620.23029	530.78882	-1191.28345							
